<svg width="201" height="13" viewBox="0 0 201 13" fill="none" xmlns="http://www.w3.org/2000/svg">
<g clip-path="url(#clip0_1792_2187)">
<path d="M31.0061 4.50325C26.8672 4.29475 22.7283 4.11126 18.5893 3.8694C17.8185 3.8277 16.6539 4.04454 16.5199 3.01872C16.3439 1.65929 17.7012 1.65929 18.5642 1.53419C25.0491 0.641805 31.5926 0.166422 38.1444 0.0663419C45.9614 -0.0587588 53.7785 0.0163016 61.5955 0.0413218C62.5506 0.0413218 63.5644 -0.0337386 64.8128 1.11719C50.5612 1.60925 36.6698 0.466664 22.9042 3.11046C26.8504 3.11046 30.7966 3.12714 34.7344 3.11046C64.5865 2.98536 94.4051 1.03379 124.274 1.51751C125.841 1.54253 127.558 0.892007 128.991 2.11799C127.617 3.3273 125.958 2.69346 124.45 2.7018C95.7205 2.91864 66.9828 3.0354 38.3288 5.56243C26.9677 6.56324 15.6318 7.83093 4.48018 11.1836C6.54126 11.1836 8.60233 11.2086 10.6634 11.1836C12.758 11.1503 14.861 11.2003 16.9388 10.9668C35.0863 8.92347 53.2841 7.58906 71.5322 6.83846C97.614 5.77093 123.696 5.57911 149.786 5.65417C165.135 5.70421 180.426 6.73838 195.632 8.83173C197.534 9.09027 201.355 9.20703 200.894 10.7916C200.274 12.9017 197.677 10.3746 195.901 10.0994C184.439 8.36469 172.894 7.2638 161.34 7.20542C135.526 7.08032 109.696 6.68834 83.8819 7.5557C62.006 8.29797 40.172 9.6574 18.3966 11.9509C13.1434 12.5014 7.80639 12.2512 2.50289 12.3095C1.62316 12.3179 0.23235 12.7349 0.0228905 11.5506C-0.22846 10.1161 1.34667 9.8659 2.31018 9.66574C6.93504 8.67327 11.5683 7.73084 16.235 6.9719C21.1447 6.17126 26.088 5.60413 31.0145 4.92859L30.9977 4.51993L31.0061 4.50325Z" fill="black"/>
</g>
<defs>
<clipPath id="clip0_1792_2187">
<rect width="200.938" height="12.3766" fill="white"/>
</clipPath>
</defs>
</svg>
